<svg xmlns="http://www.w3.org/2000/svg" viewBox="0 0 37.71 25.86"><defs><style>.cls-1{fill:#fff;stroke:#eff0f0;stroke-miterlimit:10;stroke-width:0.35px;}</style></defs><g id="Layer_2" data-name="Layer 2"><g id="Layer_1-2" data-name="Layer 1"><path class="cls-1" d="M18.29,7.59a6.27,6.27,0,0,0,5.49-2.91,8.41,8.41,0,0,0,.65-1.31l.09-.24a2.17,2.17,0,0,1,.19-.41,5.94,5.94,0,0,1,2.15-2,5,5,0,0,1,2.3-.57h7.07a1.46,1.46,0,0,1,1.3,1.59h0a1.47,1.47,0,0,1-1.3,1.6H29.32a4.6,4.6,0,0,0-3.93,2.41,9.26,9.26,0,0,1-1.92,2.33,7.62,7.62,0,0,1-5,2,7.09,7.09,0,0,1-4.83-2A9.25,9.25,0,0,1,12,6.17a5.53,5.53,0,0,0-4.64-2.8H1.48a1.47,1.47,0,0,1-1.3-1.6h0A1.46,1.46,0,0,1,1.48.18H8.16a4.54,4.54,0,0,1,2.2.57,4.5,4.5,0,0,1,1.85,1.68c.08.12.3.42.38.55s.19.33.23.41l.73,1.25A5.2,5.2,0,0,0,18.29,7.59Z"/><path class="cls-1" d="M18.29,12.89A6.27,6.27,0,0,0,23.78,10a8.41,8.41,0,0,0,.65-1.31l.09-.24A1.72,1.72,0,0,1,24.71,8a5.94,5.94,0,0,1,2.15-2,5,5,0,0,1,2.3-.58h7.07a1.47,1.47,0,0,1,1.3,1.6h0a1.47,1.47,0,0,1-1.3,1.6H29.32a4.61,4.61,0,0,0-3.93,2.4,9.14,9.14,0,0,1-1.92,2.34,7.62,7.62,0,0,1-5,2,7.09,7.09,0,0,1-4.83-2A9.25,9.25,0,0,1,12,11.47a5.53,5.53,0,0,0-4.64-2.8H1.48a1.47,1.47,0,0,1-1.3-1.6h0a1.47,1.47,0,0,1,1.3-1.6H8.16a4.54,4.54,0,0,1,2.2.58,4.5,4.5,0,0,1,1.85,1.68c.08.12.3.41.38.55s.19.33.23.4l.73,1.25A5.21,5.21,0,0,0,18.29,12.89Z"/><path class="cls-1" d="M18.29,17.84a6.27,6.27,0,0,0,5.49-2.91,8.41,8.41,0,0,0,.65-1.31l.09-.24a1.92,1.92,0,0,1,.19-.41,5.94,5.94,0,0,1,2.15-2,5,5,0,0,1,2.3-.58h7.07a1.47,1.47,0,0,1,1.3,1.6h0a1.47,1.47,0,0,1-1.3,1.6H29.32A4.6,4.6,0,0,0,25.39,16a9.26,9.26,0,0,1-1.92,2.33,7.62,7.62,0,0,1-5,2,7.09,7.09,0,0,1-4.83-2A9.25,9.25,0,0,1,12,16.42a5.53,5.53,0,0,0-4.64-2.8H1.48A1.47,1.47,0,0,1,.18,12h0a1.47,1.47,0,0,1,1.3-1.6H8.16a4.54,4.54,0,0,1,2.2.58,4.5,4.5,0,0,1,1.85,1.68c.08.12.3.42.38.55s.19.33.23.4l.73,1.26A5.21,5.21,0,0,0,18.29,17.84Z"/><path class="cls-1" d="M18.29,23.2a6.27,6.27,0,0,0,5.49-2.91A8.41,8.41,0,0,0,24.43,19l.09-.24a1.72,1.72,0,0,1,.19-.41,5.94,5.94,0,0,1,2.15-2,5,5,0,0,1,2.3-.58h7.07a1.47,1.47,0,0,1,1.3,1.6h0a1.47,1.47,0,0,1-1.3,1.6H29.32a4.61,4.61,0,0,0-3.93,2.4,9.14,9.14,0,0,1-1.92,2.34,7.62,7.62,0,0,1-5,2,7.09,7.09,0,0,1-4.83-2A9.25,9.25,0,0,1,12,21.78,5.53,5.53,0,0,0,7.35,19H1.48a1.47,1.47,0,0,1-1.3-1.6h0a1.47,1.47,0,0,1,1.3-1.6H8.16a4.54,4.54,0,0,1,2.2.58A4.5,4.5,0,0,1,12.21,18c.08.12.3.41.38.55s.19.33.23.4l.73,1.25A5.21,5.21,0,0,0,18.29,23.2Z"/></g></g></svg>