<svg xmlns="http://www.w3.org/2000/svg" viewBox="0 0 50.84 50.84"><defs><style>.cls-1{fill:#faaf40;}</style></defs><g id="Layer_2" data-name="Layer 2"><g id="Layer_1-2" data-name="Layer 1"><circle class="cls-1" cx="25.56" cy="25.42" r="12.33"/><rect class="cls-1" x="23.76" width="3.25" height="9.84" rx="1.45"/><rect class="cls-1" x="38.22" y="6.11" width="3.25" height="9.84" rx="1.45" transform="translate(19.47 -24.95) rotate(45)"/><rect class="cls-1" x="9.3" y="35.04" width="3.25" height="9.84" rx="1.45" transform="translate(31.45 3.98) rotate(45)"/><rect class="cls-1" x="9.3" y="5.9" width="3.25" height="9.84" rx="1.45" transform="translate(26.29 10.74) rotate(135)"/><rect class="cls-1" x="38.22" y="35.04" width="3.25" height="9.84" rx="1.45" transform="translate(96.28 40.04) rotate(135)"/><rect class="cls-1" x="23.76" y="41" width="3.25" height="9.84" rx="1.45"/><rect class="cls-1" x="3.29" y="20.5" width="3.25" height="9.84" rx="1.45" transform="translate(-20.5 30.34) rotate(-90)"/><rect class="cls-1" x="44.29" y="20.58" width="3.25" height="9.84" rx="1.45" transform="translate(20.43 71.42) rotate(-90)"/></g></g></svg>